<svg xmlns="http://www.w3.org/2000/svg" xmlns:xlink="http://www.w3.org/1999/xlink" aria-hidden="true" role="img" preserveAspectRatio="xMidYMid meet" viewBox="0 0 24 24"><path class="uim-primary" d="M19.965 13h-16a1 1 0 0 1 0-2h16a1 1 0 0 1 0 2z" fill="currentColor"></path><path class="uim-primary" d="M11.965 21a1 1 0 0 1-1-1V4a1 1 0 0 1 2 0v16a1 1 0 0 1-1 1z" fill="currentColor"></path><circle cx="3.964" cy="16" r="1" class="uim-tertiary" opacity=".5" fill="currentColor"></circle><circle cx="3.964" cy="20" r="1" class="uim-tertiary" opacity=".5" fill="currentColor"></circle><circle cx="3.964" cy="8" r="1" class="uim-tertiary" opacity=".5" fill="currentColor"></circle><circle cx="3.964" cy="4" r="1" class="uim-tertiary" opacity=".5" fill="currentColor"></circle><circle cx="7.964" cy="4" r="1" class="uim-tertiary" opacity=".5" fill="currentColor"></circle><circle cx="15.964" cy="4" r="1" class="uim-tertiary" opacity=".5" fill="currentColor"></circle><circle cx="7.964" cy="20" r="1" class="uim-tertiary" opacity=".5" fill="currentColor"></circle><circle cx="15.964" cy="20" r="1" class="uim-tertiary" opacity=".5" fill="currentColor"></circle><circle cx="19.964" cy="16" r="1" class="uim-tertiary" opacity=".5" fill="currentColor"></circle><circle cx="19.964" cy="20" r="1" class="uim-tertiary" opacity=".5" fill="currentColor"></circle><circle cx="19.964" cy="8" r="1" class="uim-tertiary" opacity=".5" fill="currentColor"></circle><circle cx="19.964" cy="4" r="1" class="uim-tertiary" opacity=".5" fill="currentColor"></circle></svg>